<mxfile host="app.diagrams.net" agent="Mozilla/5.0 (Windows NT 10.0; Win64; x64) AppleWebKit/537.36 (KHTML, like Gecko) Chrome/127.0.0.0 Safari/537.36" version="24.7.10">
  <diagram id="6a731a19-8d31-9384-78a2-239565b7b9f0" name="Page-1">
    <mxGraphModel dx="2603" dy="780" grid="1" gridSize="10" guides="1" tooltips="1" connect="1" arrows="1" fold="1" page="1" pageScale="1" pageWidth="1169" pageHeight="827" background="none" math="0" shadow="0">
      <root>
        <mxCell id="0" />
        <mxCell id="1" parent="0" />
        <mxCell id="xQ-k0JLm2w4mk76hagWl-1784" value="&lt;font style=&quot;font-size: 20px;&quot;&gt;不同业务使用不同的线程池，防止业务冲突造成线程死锁（A业务等待B业务；B业务等待A业务），以及后续运维排查困难（线程池指定线程名前缀）&lt;/font&gt;" style="rounded=1;whiteSpace=wrap;html=1;fillColor=#dae8fc;strokeColor=#6c8ebf;" vertex="1" parent="1">
          <mxGeometry x="280" y="240" width="250" height="190" as="geometry" />
        </mxCell>
        <mxCell id="xQ-k0JLm2w4mk76hagWl-1785" value="&lt;font style=&quot;font-size: 20px;&quot;&gt;使用get()方法阻塞线程要设置超时时间，防止线程超时堆积&lt;/font&gt;" style="rounded=1;whiteSpace=wrap;html=1;fillColor=#dae8fc;strokeColor=#6c8ebf;" vertex="1" parent="1">
          <mxGeometry x="280" y="90" width="220" height="120" as="geometry" />
        </mxCell>
        <mxCell id="xQ-k0JLm2w4mk76hagWl-1788" value="&lt;font style=&quot;font-size: 20px;&quot;&gt;使用ThreadLocal要及时回收，否则有可能回去脏数据，因为线程池会复用线程对象，与线程对象绑定的threadLocal变量也会被重用&lt;/font&gt;" style="rounded=1;whiteSpace=wrap;html=1;fillColor=#dae8fc;strokeColor=#6c8ebf;" vertex="1" parent="1">
          <mxGeometry x="290" y="470" width="230" height="210" as="geometry" />
        </mxCell>
        <mxCell id="xQ-k0JLm2w4mk76hagWl-1789" value="&lt;font style=&quot;font-size: 25px;&quot;&gt;线程池&lt;/font&gt;" style="ellipse;whiteSpace=wrap;html=1;" vertex="1" parent="1">
          <mxGeometry x="-90" y="270" width="160" height="160" as="geometry" />
        </mxCell>
        <mxCell id="xQ-k0JLm2w4mk76hagWl-1790" value="" style="shape=curlyBracket;whiteSpace=wrap;html=1;rounded=1;labelPosition=left;verticalLabelPosition=middle;align=right;verticalAlign=middle;size=0.3684210526315789;" vertex="1" parent="1">
          <mxGeometry x="80" y="150" width="190" height="430" as="geometry" />
        </mxCell>
        <mxCell id="xQ-k0JLm2w4mk76hagWl-1792" value="&lt;font style=&quot;font-size: 20px;&quot;&gt;注意事项&lt;/font&gt;" style="text;html=1;align=center;verticalAlign=middle;whiteSpace=wrap;rounded=0;" vertex="1" parent="1">
          <mxGeometry x="170" y="260" width="20" height="210" as="geometry" />
        </mxCell>
      </root>
    </mxGraphModel>
  </diagram>
</mxfile>
